<svg width="432" height="296" viewBox="0 0 432 296" fill="none" xmlns="http://www.w3.org/2000/svg">
<path d="M200.071 271.098C198.661 276.001 194.083 279.226 188.982 279.226H156.3C152.059 279.226 149.844 274.045 152.613 270.833C176.79 242.779 193.924 205.774 202.754 171.733C203.046 170.608 204.057 169.821 205.219 169.821C206.565 169.821 207.677 170.871 207.747 172.215C209.425 204.518 209.12 239.617 200.071 271.098Z" fill="#FFAF9D"/>
<path d="M262.697 26.3708C263.102 21.0107 285.431 21.4414 285.431 21.4414C285.431 21.4414 303.4 23.574 302.996 28.9341C302.591 34.2942 305.375 36.2665 284.32 36.1575C269.551 36.081 262.293 31.7309 262.697 26.3708Z" fill="#7BB5FB"/>
<path d="M143.778 54.9493C143.689 50.7744 155.782 51.0339 155.782 51.0339C155.782 51.0339 163.465 51.5324 163.553 55.7073C163.642 59.8823 162.11 58.4853 155.938 61.0106C148.368 64.1082 143.866 59.1242 143.778 54.9493Z" fill="#7BB5FB"/>
<path d="M357.145 209.217C354.127 211.73 353.329 213.174 356.168 216.583C359.007 219.992 361.023 219.574 364.041 217.061C367.058 214.548 368.157 212.372 365.318 208.963C362.479 205.554 360.162 206.704 357.145 209.217Z" fill="#FFDDBF"/>
<path d="M342.685 93.6104C333.971 98.2695 327.083 97.317 327.237 106.45C327.319 111.247 329.594 115.178 334.411 117.211C338.114 118.774 339.149 115.153 343.799 115.454C348.449 115.756 352.595 117.945 355.748 116.054C361.959 112.327 362.78 108.105 362.685 102.456C362.547 94.3016 353.95 87.5878 342.685 93.6104Z" fill="#B7EB6E"/>
<path d="M112.622 176.328C114.085 178.211 116.505 180.642 120.008 177.92C123.511 175.198 122.225 171.67 120.762 169.787C119.299 167.904 117.7 167.427 114.197 170.149C110.694 172.871 111.159 174.445 112.622 176.328Z" fill="#B7EB6E"/>
<path d="M79.7285 285.802H92.881M118.326 161.27C120.009 156.979 123.1 152.265 128.154 147.549M118.326 161.27C113.895 172.566 119.23 180.927 124.241 178.663C132.313 175.017 121.699 164.266 118.326 161.27ZM118.326 161.27C110.588 154.399 98.4323 147.537 84.4701 144.989M267.228 204.496C312.664 190.148 343.654 175.84 379.214 192.093C406.677 204.645 415.355 240.717 400.633 263.324C388.731 281.6 366.678 285.802 346.362 285.802H334.408M267.228 204.496C287.645 233.698 310.702 261.063 334.408 285.802M267.228 204.496C244.971 172.662 225.852 138.644 212.45 103.461M136.705 234.986C116.856 240.297 99.2254 241.078 84.513 239.155M136.705 234.986C122.814 252.9 108.064 269.919 92.881 285.802M136.705 234.986C167.903 194.751 194.766 149.999 212.45 103.461M349.999 84.8438C349.999 84.8438 361.717 84.7481 366.332 95.0788C370.959 105.409 364 114.162 362.052 116.027C358.101 119.808 353.837 122.197 353.538 127.972M349.999 84.8438C349.999 84.8438 338.281 84.7481 333.666 95.0788C329.051 105.409 335.986 114.21 337.947 116.027C341.899 119.69 346.298 122.232 346.364 127.972M349.999 84.8438C358.201 90.2722 357.604 103.688 355.475 109.272C353.203 115.227 352.089 121.715 350.959 127.972M349.999 84.8438C341.797 90.2722 342.335 103.688 344.499 109.272C346.774 115.233 347.862 121.715 349.019 127.972M346.364 127.972L346.364 131.559M346.364 127.972H349.019M353.538 127.972L353.538 131.559M353.538 127.972H350.959M72.5282 125.581H79.6976M90.4634 178.191H84.4853M74.9196 202.104H79.6976M334.408 285.802L339.477 272.587M334.408 285.802H300.009M212.45 103.461C212.554 165.428 231.194 229.921 257.872 285.802M212.45 103.461C220.117 164.001 255.329 241.808 300.009 285.802M212.45 103.461C212.346 165.244 194.331 230.086 167.796 285.802M212.45 103.461C204.824 163.822 170.339 241.938 125.899 285.802M212.45 103.461V89.7106M257.872 285.802H167.796M257.872 285.802H300.009M92.881 285.802L87.8129 272.587M92.881 285.802H125.899M167.796 285.802H125.899M339.477 272.587C341.644 273.427 343.64 273.466 343.937 272.674C344.233 271.882 342.717 270.559 340.55 269.719C338.383 268.879 336.386 268.84 336.089 269.632C335.793 270.424 337.309 271.747 339.477 272.587ZM87.8129 272.587C85.6458 273.427 83.6489 273.466 83.3526 272.674C83.0562 271.882 84.5728 270.559 86.7398 269.719C88.9068 268.879 90.9038 268.84 91.2001 269.632C91.4964 270.424 89.9799 271.747 87.8129 272.587ZM212.45 89.7106V72.9711C222.49 74.7968 233.496 74.7966 243.537 72.9711L234.569 81.9387L243.537 89.7106C233.367 91.4055 222.619 91.4057 212.45 89.7106ZM294.953 139.929V144.6M294.953 149.494V154.277M302.127 147.103H297.456M292.449 147.103H287.779M79.6976 125.581V105.852C71.85 110.431 56.9741 109.908 50.9863 104.059C59.9898 104.059 73.0259 99.336 74.9031 89.7107C68.2073 94.8641 59.8951 91.5997 53.3786 87.3192C63.5898 87.2953 75.4886 81.2693 76.0984 70.58C70.9092 76.9888 59.7654 76.4627 54.5762 71.7756C70.6581 71.7756 82.075 49.464 82.075 35.905C82.075 49.464 93.4928 71.7754 109.575 71.7754C104.385 76.4624 93.2398 76.9888 88.0506 70.58C88.6604 81.2693 100.559 87.2953 110.77 87.3192C104.254 91.5997 95.9452 94.8642 89.2493 89.7108C91.1266 99.336 104.159 104.059 113.163 104.059C107.175 109.908 92.2999 110.431 84.4523 105.852L84.4701 144.989M79.6976 125.581V144.299M84.513 239.155C82.8738 238.941 81.2685 238.693 79.6976 238.414M84.513 239.155L84.4853 178.191M79.6976 238.414V202.104M79.6976 238.414C53.6816 233.796 24.2088 216.793 24.2696 186.931C24.3289 157.855 53.4169 141.504 79.6976 144.299M79.6976 144.299C81.3088 144.47 82.9009 144.702 84.4701 144.989M79.6976 144.299V202.104M84.4701 144.989L84.4853 178.191M346.364 131.559H345.169C345.169 135.003 346.257 138.136 349.999 138.136C353.742 138.136 354.734 135.003 354.734 131.559H353.538M346.364 131.559H353.538M349.019 127.972H350.959M257.589 29.3175C257.589 29.3175 247.09 29.5801 250.975 21.5612C255.109 13.0294 264.7 18.1498 267.511 15.3575C268.999 13.8063 270.114 11.8099 272.472 10.7039C278.277 7.98127 283.882 17.3739 289.008 12.2548C291.488 9.77282 298.929 9.30652 300.583 15.3564C302.071 20.9409 306.619 18.0778 310.504 20.01C312.437 20.9713 315.134 23.733 312.158 26.9906C309.678 29.6277 300.583 29.3175 300.583 29.3175L257.589 29.3175ZM369.085 210.474C369.085 212.455 367.479 214.061 365.498 214.061C363.517 214.061 361.911 212.455 361.911 210.474C361.911 208.493 363.517 206.887 365.498 206.887C367.479 206.887 369.085 208.493 369.085 210.474ZM143.097 56.2315C138.685 56.2315 138.866 53.3722 139.51 51.4488C141.014 46.9651 147.822 48.6151 149.579 46.9651C150.233 46.3205 150.936 45.7288 151.684 45.1955C155.546 42.4454 157.746 48.2923 160.735 45.0879C162.17 43.5454 166.797 43.5454 167.682 47.2999C168.459 50.6119 172.768 49.2227 173.587 51.4488C174.727 54.5474 170.471 56.2315 167.011 56.2315C167.011 56.2315 151.285 56.2315 143.097 56.2315Z" stroke="#071D2B" stroke-width="1.5" stroke-linecap="round" stroke-linejoin="round"/>
</svg>
