<svg width="432" height="296" viewBox="0 0 432 296" fill="none" xmlns="http://www.w3.org/2000/svg">
<path d="M194.199 90.4026C194.133 96.2827 202.133 107.32 216.598 106.203C229.032 106.152 232.531 89.9052 220.813 87.5376C215.652 86.495 210.328 88.8982 205.844 84.9858C201.36 81.0733 194.264 84.5225 194.199 90.4026Z" fill="#FFAF9D"/>
<path d="M242.19 133.092C241.211 128.618 244.619 124.385 249.198 124.385H275.844C279.388 124.385 282.749 125.957 285.021 128.677L316.542 166.418C320.444 171.089 317.122 178.191 311.036 178.191H261.675C256.055 178.191 251.194 174.278 249.994 168.788L242.19 133.092Z" fill="#FFDDBF"/>
<path d="M381.533 153.225C386.002 152.173 386.274 148.891 385.389 145.131C384.504 141.371 382.047 140.427 377.578 141.479C373.109 142.532 370.953 144.561 371.838 148.321C372.723 152.081 377.064 154.277 381.533 153.225Z" fill="#C5D6E0"/>
<path d="M148.217 222.868C148.217 219.985 145.88 217.648 142.997 217.648C133.408 217.648 125.626 225.408 125.599 234.997L125.519 263.064C125.508 267.034 128.723 270.258 132.694 270.258H141.043C145.005 270.258 148.217 267.046 148.217 263.084V222.868Z" fill="#C5D6E0"/>
<path d="M48.3026 197.835C51.2339 200.448 53.6341 199.063 55.794 196.64C57.9538 194.218 57.3934 192.051 54.4621 189.437C51.5308 186.824 49.0655 186.294 46.9057 188.717C44.7459 191.14 45.3713 195.222 48.3026 197.835Z" fill="#B7EB6E"/>
<path d="M350.285 257.106C350.285 253.144 353.497 249.932 357.459 249.932L374.135 249.932C379.393 249.932 383.666 254.176 383.7 259.434C383.735 264.741 379.443 269.062 374.135 269.062H359.85C354.567 269.062 350.285 264.78 350.285 259.497V257.106Z" fill="#B7EB6E"/>
<path d="M153.749 24.5956C153.74 19.2203 132.275 18.0032 132.275 18.0032C132.275 18.0032 114.875 18.805 114.884 24.1803C114.892 29.5556 112.08 31.3173 132.298 32.7611C146.481 33.774 153.757 29.9709 153.749 24.5956Z" fill="#7BB5FB"/>
<path d="M52.7168 81.2096C52.6237 85.7635 59.3299 87.335 64.468 87.0657C68.7541 86.841 74.102 86.6061 74.1951 82.0522C74.2882 77.4983 69.4359 75.1447 64.7236 74.5629C55.8715 73.4701 52.8099 76.6557 52.7168 81.2096Z" fill="#7BB5FB"/>
<path d="M398.004 97.6306C397.706 103.435 379.687 100.598 379.687 100.598C379.687 100.598 368.273 100.287 368.571 94.4823C368.868 88.6776 371.011 90.7791 380.48 87.9278C392.095 84.4304 398.301 91.826 398.004 97.6306Z" fill="#7BB5FB"/>
<path d="M341.318 169.223V226.018M341.318 169.223H216.968L153.597 114.222L99.7918 164.441V258.899C99.7918 266.824 106.216 273.247 114.14 273.247H133.272M341.318 169.223C331.246 156.995 282.73 99.8739 282.73 99.8739H239.09M341.318 226.018H377.789C385.713 226.018 392.137 232.442 392.137 240.366V273.247H133.272M341.318 226.018V273.247C341.318 281.172 334.894 287.596 326.97 287.596H226.533C218.609 287.596 212.185 281.172 212.185 273.247V176.397L153.597 124.983L105.302 171.132C102.314 173.987 97.5382 173.734 94.869 170.579L91.1081 166.134C88.6147 163.187 88.9003 158.795 91.7543 156.196L153.597 99.8739H239.09M68.3373 237.35C51.5056 226.092 24.46 230.812 24.46 258.899C24.46 274.748 40.5371 287.596 64.5204 287.596H159.577C167.501 287.596 173.925 281.172 173.925 273.247V231.399C173.925 220.173 164.824 211.072 153.598 211.072V211.072C142.372 211.072 133.272 220.173 133.272 231.399V273.247M68.3373 237.35C71.7688 239.645 74.7758 242.604 77.0425 246.165C81.8746 253.756 71.3364 259.983 67.4716 252.138C65.6247 248.389 66.6179 242.651 68.3373 237.35ZM68.3373 237.35C70.5874 230.413 74.081 224.225 74.081 224.225M238.491 229.007H267.187M252.839 243.355V214.659M286.318 229.007H315.014M300.666 243.355V214.659M300.666 214.659H286.318V243.355H315.014V214.659H300.666ZM325.776 24.546V29.2167M325.776 34.1115V38.8942M332.951 31.7201H328.28M323.273 31.7201H318.602M185.284 72.2343L198.848 76.7076M198.848 76.7076L212.892 80.4672M198.848 76.7076L212.892 72.2343M198.848 76.7076L185.284 80.4672M223.546 93.2977H203.219V99.8739H196.633C192.237 99.8739 188.875 95.9559 189.542 91.6106L193.875 63.4056L198.622 71.276L202.918 63.4056C202.918 63.4056 204 73.1242 205.475 78.6114C205.953 80.3909 206.492 81.9042 207.085 82.8414C209.496 86.64 213.723 85.0587 217.085 83.7008C230.746 78.2406 239.09 85.975 239.09 99.8739M238.491 214.659H267.187V243.355H238.491V214.659ZM159.577 170.419C159.577 173.721 156.9 176.397 153.599 176.397C150.297 176.397 147.62 173.721 147.62 170.419C147.62 167.117 150.297 164.441 153.599 164.441C156.9 164.441 159.577 167.117 159.577 170.419ZM167.947 247.54C167.947 249.191 166.608 250.53 164.957 250.53C163.307 250.53 161.968 249.191 161.968 247.54C161.968 245.889 163.307 244.551 164.957 244.551C166.608 244.551 167.947 245.889 167.947 247.54ZM115.042 27.524C115.042 27.524 104.542 27.7866 108.427 19.7678C112.561 11.2359 122.152 16.3563 124.963 13.5641C126.452 12.0128 126.617 10.4616 129.924 8.91042C135.729 6.1878 141.334 15.5805 146.46 10.4613C148.941 7.97936 156.382 7.51305 158.035 13.5629C159.524 19.1474 164.072 16.2843 167.957 18.2165C169.89 19.1778 172.587 21.9395 169.61 25.1971C167.13 27.8342 158.035 27.524 158.035 27.524L115.042 27.524ZM364.505 95.6174C358.682 95.6294 358.383 91.0738 358.79 90.0814C362.461 81.3051 370.113 85.753 372.205 83.4334C373.281 82.2258 373.616 82.0584 374.884 81.1019C379.762 77.4072 383.17 85.0476 386.912 80.8866C388.73 78.854 394.899 78.7822 396.418 83.7084C397.769 88.1564 401.284 85.8128 403.998 87.8694C406.211 89.5434 408.925 91.7075 406.725 94.3619C404.955 96.4903 400.148 95.6891 396.681 95.5935C383.445 95.1989 377.705 95.6055 364.505 95.6174ZM50.77 189.55C50.77 191.531 49.1641 193.137 47.183 193.137C45.2019 193.137 43.5959 191.531 43.5959 189.55C43.5959 187.569 45.2019 185.963 47.183 185.963C49.1641 185.963 50.77 187.569 50.77 189.55ZM51.9631 79.5473C47.551 79.5473 47.7312 76.688 48.3761 74.7646C49.8795 70.2809 56.6872 71.9309 58.4449 70.2809C59.0984 69.6363 59.8021 69.0446 60.5492 68.5113C64.4113 65.7612 66.6113 71.6081 69.6005 68.4037C71.0354 66.8612 75.6626 66.8612 76.5475 70.6157C77.3246 73.9277 81.6338 72.5385 82.4529 74.7646C83.5932 77.8632 79.3365 79.5473 75.8767 79.5473C75.8767 79.5473 60.1511 79.5473 51.9631 79.5473ZM270.177 104.059V70.5797C270.177 68.5987 268.571 66.9927 266.59 66.9927H254.633C252.652 66.9927 251.046 68.5987 251.046 70.5797V104.059C251.046 106.04 252.652 107.646 254.633 107.646H266.59C268.571 107.646 270.177 106.04 270.177 104.059Z" stroke="#071D2B" stroke-width="1.5" stroke-miterlimit="10" stroke-linecap="round" stroke-linejoin="round"/>
</svg>
