<svg width="432" height="296" viewBox="0 0 432 296" fill="none" xmlns="http://www.w3.org/2000/svg">
<path d="M261.847 257.678C263.836 263.83 259.041 278.031 243.489 281.582C230.418 285.588 221.439 269.673 232.969 263.361C238.046 260.581 244.422 261.365 247.852 255.793C251.282 250.221 259.858 251.526 261.847 257.678Z" fill="#FFAF9D"/>
<path d="M372.315 234.743C370.245 243.745 376.843 241.466 386.147 248.322C395.45 255.178 397.556 266.247 405.104 261.81C414.065 256.544 408.35 240.552 399.046 233.696C389.743 226.84 375.292 221.794 372.315 234.743Z" fill="#B7EB6E"/>
<path d="M320.765 26.3895C320.757 21.0142 299.292 19.7971 299.292 19.7971C299.292 19.7971 281.892 20.599 281.9 25.9743C281.908 31.3496 279.097 33.1113 299.315 34.5551C313.498 35.5679 320.773 31.7649 320.765 26.3895Z" fill="#7BB5FB"/>
<path d="M366.223 83.7037C366.117 88.8825 374.39 90.6828 380.725 90.3866C386.01 90.1395 392.604 89.8828 392.71 84.7041C392.816 79.5253 386.828 76.839 381.016 76.1682C370.098 74.908 366.329 78.5249 366.223 83.7037Z" fill="#7BB5FB"/>
<path d="M138.909 49.1868C138.696 53.3572 126.654 52.2238 126.654 52.2238C126.654 52.2238 119.027 51.171 119.241 47.0006C119.455 42.8302 120.881 44.3343 127.219 42.2619C134.993 39.7199 139.123 45.0164 138.909 49.1868Z" fill="#7BB5FB"/>
<path d="M23.5026 165.567C24.9658 167.449 27.3862 169.881 30.8892 167.159C34.3922 164.437 33.106 160.909 31.6428 159.026C30.1797 157.143 28.5812 156.666 25.0783 159.388C21.5753 162.11 22.0395 163.684 23.5026 165.567Z" fill="#FFDDBF"/>
<path d="M99.0519 92.7805C94.5505 92.1165 90.3294 95.2517 89.5656 99.7372C88.7565 104.489 92.1024 109.028 96.8938 109.551L205.178 121.365C208.667 121.746 211.811 119.245 212.225 115.76C212.634 112.321 210.232 109.181 206.806 108.676L99.0519 92.7805Z" fill="#C5D6E0"/>
<path d="M235.727 52.6445V57.3152M235.727 62.21V66.9927M242.901 59.8186H238.23M233.223 59.8186H228.553M130.581 249.221L143.913 149.222M130.581 249.221L164.281 259.032L164.989 253.665M130.581 249.221L96.9718 244.943M231.67 261.417C231.09 267.019 235.664 272.209 241.303 272.209C246.225 272.209 250.281 268.411 250.903 263.667M231.67 261.417L217.546 259.765C217.543 259.764 217.539 259.764 217.535 259.764M231.67 261.417L250.903 263.667M250.903 263.667C252.448 263.847 253.992 264.027 255.537 264.206C260.942 264.833 264.899 269.985 262.235 274.729C258.129 282.044 250.766 286.998 241.69 286.998M143.913 149.222L190.579 154.778L177.204 255.083M143.913 149.222L177.547 158.5L164.989 253.665M214.47 187.066C227.768 187.046 238.97 172.998 242.09 160.958M214.47 187.066C225.319 190.166 230.581 209.266 229.47 218.154M214.47 187.066C218.257 193.865 220.633 201.12 220.581 209.222M214.47 187.066L211.556 208.673C211.021 212.641 213.836 216.278 217.811 216.755L229.47 218.154M214.47 187.066L217.419 165.121C217.941 161.234 221.489 158.486 225.384 158.954L242.09 160.958M214.47 187.066L270.018 193.734M238.361 219.221L246.138 161.444M238.361 219.221L247.713 220.344M238.361 219.221L229.47 218.154M246.138 161.444L242.09 160.958M246.138 161.444L250.101 161.92M270.018 193.734C257.166 190.32 250.045 174.357 250.101 161.92M270.018 193.734C258.737 193.962 248.907 211.466 247.713 220.344M270.018 193.734C264.622 199.34 260.594 206.051 258.576 213.898M270.018 193.734L272.945 171.991C273.479 168.024 270.663 164.387 266.689 163.91L250.101 161.92M270.018 193.734L267.081 215.546C266.558 219.433 263.011 222.179 259.117 221.712L247.713 220.344M56.3748 286.998V272.65M56.3748 286.998H30.0698V272.65H56.3748M56.3748 286.998H82.6798M56.3748 272.65H82.6798M82.6798 286.998V272.65M82.6798 286.998H108.985V272.65H82.6798M69.5273 272.65V258.302M69.5273 272.65H43.2223V258.302H69.5273M69.5273 272.65H95.8322V258.302H69.5273M241.69 286.998H158.335C131.348 286.998 107.107 269.707 96.9718 244.943M241.69 286.998C241.69 286.998 338.355 286.998 366.688 286.998C389.466 286.998 404.388 275.059 404.388 260.332C404.388 235.398 381.452 230.28 365.766 238.993M241.69 286.998C227.67 286.998 216.081 273.681 217.535 259.765L217.535 259.764M217.535 259.764C218.747 245.853 231.191 235.165 245.735 236.765C259.625 238.282 267.259 249.262 268.307 261.258C268.526 263.764 270.332 265.948 272.83 266.239L311.184 270.716C321.377 271.906 330.693 264.841 332.298 254.705L348.039 155.245C349.707 144.706 342.432 134.839 331.871 133.318L73.4462 96.0993C70.8786 95.7295 68.4843 97.4739 68.0494 100.031L66.68 108.084C66.2284 110.739 68.0573 113.243 70.7239 113.621L309.691 147.487C314.677 148.194 319.356 144.915 320.394 139.988L322.83 128.418C323.973 122.992 320.277 117.735 314.785 116.972L67.0904 82.5898C62.0071 81.8842 57.2728 85.3157 56.3617 90.3662L52.0619 114.201C51.0981 119.544 54.7685 124.617 60.1445 125.372L96.107 130.425C99.9799 130.969 102.703 134.515 102.23 138.397L92.3479 219.465C91.8118 224.402 92.2521 229.112 93.2833 233.654M217.535 259.764L177.204 255.083M362.471 226.616C362.471 226.616 364.645 232.402 365.766 238.993M164.989 253.665L177.204 255.083M96.9718 244.943L74.8083 242.122C71.8374 241.744 69.7081 239.069 70.0061 236.089V236.089C70.3197 232.953 73.188 230.713 76.3065 231.17L93.2833 233.654M96.9718 244.943C95.4719 241.279 94.1627 237.528 93.2833 233.654M365.766 238.993C361.823 241.183 358.338 244.247 355.79 248.089C350.803 255.612 361.175 261.577 365.104 253.172C366.858 249.421 366.613 243.977 365.766 238.993ZM278.771 28.7309C278.771 28.7309 267.977 28.3845 271.862 20.3657C275.996 11.8338 285.587 16.9542 288.398 14.162C289.886 12.6107 290.052 11.0595 293.359 9.50832C299.164 6.7857 304.769 16.1784 309.895 11.0593C312.375 8.57726 319.816 8.11095 321.47 14.1608C322.958 19.7453 327.506 16.8822 331.391 18.8144C333.324 19.7757 336.021 22.5374 333.045 25.795C330.068 29.0526 321.816 28.7309 321.816 28.7309H278.771ZM116.157 46.6662C111.745 46.6662 111.925 43.8069 112.57 41.8835C114.073 37.3998 119.184 39.9464 120.942 38.2964C121.595 37.6518 123.074 36.3403 124.743 35.6302C128.104 34.1993 131.105 39.1094 134.094 35.905C135.529 34.3626 139.856 33.9801 140.741 37.7346C141.518 41.0466 145.827 39.6574 146.646 41.8835C147.787 44.9821 143.53 46.6662 140.07 46.6662C140.07 46.6662 124.345 46.6662 116.157 46.6662ZM32.4612 157.864C32.4612 159.845 30.8552 161.451 28.8741 161.451C26.8931 161.451 25.2871 159.845 25.2871 157.864C25.2871 155.883 26.8931 154.277 28.8741 154.277C30.8552 154.277 32.4612 155.883 32.4612 157.864ZM360.186 83.7322C354.363 83.7442 354.423 78.5192 354.829 77.5268C358.5 68.7505 366.152 73.1984 368.245 70.8788C369.321 69.6712 369.656 69.5038 370.923 68.5472C375.801 64.8526 379.209 72.493 382.952 68.332C384.769 66.2993 390.939 66.2276 392.457 71.1538C393.808 75.6017 397.324 73.2582 400.038 75.3148C402.25 76.9887 404.964 79.1529 402.764 81.8073C400.994 83.9356 395.83 83.8279 392.362 83.7322C381.003 83.7322 373.387 83.7203 360.186 83.7322ZM163.914 211.443C163.914 213.284 162.422 214.777 160.581 214.777C158.74 214.777 157.248 213.284 157.248 211.443C157.248 209.603 158.74 208.11 160.581 208.11C162.422 208.11 163.914 209.603 163.914 211.443ZM82.6798 258.302V243.954H56.3748V258.302H82.6798ZM77.8025 236.999C77.8025 237.919 77.0563 238.665 76.1358 238.665C75.2154 238.665 74.4692 237.919 74.4692 236.999C74.4692 236.078 75.2154 235.332 76.1358 235.332C77.0563 235.332 77.8025 236.078 77.8025 236.999Z" stroke="#071D2B" stroke-width="1.5" stroke-miterlimit="10" stroke-linecap="round" stroke-linejoin="round"/>
</svg>
