<svg width="432" height="296" viewBox="0 0 432 296" fill="none" xmlns="http://www.w3.org/2000/svg">
<path d="M214.918 93.226C215.395 95.0543 217.091 96.2202 218.98 96.2202H232.517C235.645 96.2202 237.755 93.1555 236.272 90.4019C233.352 84.981 228.078 77.7694 220.783 78.0541C212.18 78.3897 213.595 88.1549 214.918 93.226Z" fill="#FFAF9D"/>
<path d="M21.9715 102.634C18.7098 104.445 18.9661 107.916 20.1962 110.131C21.4264 112.347 23.4705 113.349 26.7321 111.538C29.9937 109.727 31.3162 106.856 30.086 104.64C28.8559 102.425 25.9692 99.8839 21.9715 102.634Z" fill="#B7EB6E"/>
<path d="M217.3 170.918C213.948 169.28 211.878 171.635 210.24 174.987C208.602 178.338 209.795 179.828 213.146 181.466C216.498 183.105 218.765 183.305 220.403 179.953C222.041 176.602 220.652 172.557 217.3 170.918Z" fill="#FFDDBF"/>
<path d="M401.82 193.869C399.041 195.412 399.074 198.035 399.973 199.655C400.872 201.274 402.504 201.931 405.284 200.388C408.063 198.844 409.3 196.595 408.401 194.976C407.501 193.356 405.254 191.575 401.82 193.869Z" fill="#FFDDBF"/>
<path d="M298.691 18.6321C298.683 13.5255 283.292 12.3615 283.292 12.3615C283.292 12.3615 270.816 13.1168 270.824 18.2234C270.832 23.33 268.816 25.0025 283.314 26.3815C293.484 27.3489 298.699 23.7386 298.691 18.6321Z" fill="#7BB5FB"/>
<path d="M386.69 88.1444C386.602 92.4706 392.972 93.9635 397.854 93.7077C401.926 93.4942 407.006 93.2711 407.094 88.9449C407.183 84.6187 402.573 82.3828 398.097 81.8301C389.687 80.7919 386.778 83.8182 386.69 88.1444Z" fill="#7BB5FB"/>
<path d="M302.522 141.656C302.522 137.892 305.573 134.841 309.337 134.841H311.22C314.337 134.841 317.057 136.956 317.825 139.977L326.488 174.054C327.583 178.362 324.328 182.548 319.883 182.548H309.337C305.573 182.548 302.522 179.497 302.522 175.733V141.656Z" fill="#C5D6E0"/>
<path d="M146.904 190.499C146.904 186.735 143.853 183.684 140.089 183.684H128.566C125.393 183.684 122.639 185.874 121.926 188.966L105.668 259.392C104.682 263.663 107.925 267.74 112.308 267.74H140.089C143.853 267.74 146.904 264.689 146.904 260.925V190.499Z" fill="#C5D6E0"/>
<path d="M232.666 244.409V205.834L198.589 205.834V244.409M215.627 244.455V205.834M159.966 71.7985V71.7985C159.966 69.2891 157.932 67.2549 155.422 67.2549H140.281V71.7985M159.966 71.7985L159.968 92.2446M159.966 71.7985H140.281M130.435 92.2446V85.2666M292.021 71.7985H272.333M292.021 71.7985V67.2549H276.877C274.367 67.2549 272.333 69.2891 272.333 71.7985V71.7985M292.021 71.7985H293.554C298.193 71.7985 301.954 75.5593 301.954 80.1984V80.1984M272.333 71.7985V92.2446M301.954 92.2446L337.167 244.455H247.431V149.039C247.431 145.275 244.379 142.224 240.615 142.224H191.772C188.008 142.224 184.957 145.275 184.957 149.039V244.455H233.8C236.937 244.455 239.48 246.997 239.48 250.134V250.134C239.48 253.271 236.937 255.814 233.8 255.814H174.733C171.597 255.814 169.054 258.356 169.054 261.493V261.493C169.054 264.63 171.597 267.173 174.733 267.173H249.135C251.958 267.173 254.246 269.461 254.246 272.284V272.284C254.246 275.107 251.958 277.396 249.135 277.396H25.9326M301.954 92.2446V85.5496M301.954 92.2446H272.333M240.617 92.2446C236.921 81.6442 227.124 74.0703 215.627 74.0703C204.13 74.0703 194.334 81.6442 190.637 92.2446M240.617 92.2446H190.637M240.617 92.2446H272.333M190.637 92.2446H159.968M215.628 74.0703V60.8752M215.628 48.1893V50.2165M215.628 50.2165C222.016 51.2254 228.553 51.4421 234.937 50.2165V61.5754C228.734 62.9137 221.308 62.7113 215.628 60.8752M215.628 50.2165V60.8752M205.404 222.873L208.812 219.465M205.404 218.329L208.812 214.921M222.443 234.232L225.85 230.824M222.443 229.688L225.85 226.28M406.456 277.396H267.877L281.539 118.921C281.842 115.397 284.792 112.691 288.329 112.691H335.14C338.571 112.691 341.467 115.241 341.901 118.645L363.86 291.026H68.5272L90.4866 118.645C90.9202 115.241 93.8163 112.691 97.2474 112.691H144.059C147.596 112.691 150.545 115.397 150.849 118.921L161.671 244.455H95.7887L130.434 92.2446H159.968M39.5434 20.9821H61.1274M82.7076 20.9821H61.1274M45.7908 41.4282H61.1274V20.9821M49.7664 52.7872H56.5863M71.9164 52.7872H64.5375M113.377 36.8846H138.366M109.969 43.7H117.92M107.697 30.0693H125.871M368.973 24.0909V28.5279M368.973 33.178V37.7216M375.789 30.9062H371.351M366.595 30.9062H362.158M80.4379 45.9892H92.9325C95.4419 45.9892 97.4761 43.955 97.4761 41.4456V37.4526C97.4761 35.8842 96.2047 34.6129 94.6364 34.6129V34.6129C93.068 34.6129 91.7966 35.8842 91.7966 37.4526V40.2923H71.3509C67.5859 40.2923 64.5342 43.3452 64.5355 47.1102L64.5375 52.7872M80.4379 45.9892V39.1564C80.4379 32.8831 75.3523 27.7975 69.0789 27.7975L53.1849 27.7975C48.1614 27.7975 44.089 31.8698 44.089 36.8933V36.8933C44.089 41.9169 48.1614 45.9892 53.1849 45.9892H56.5863M80.4379 45.9892H56.5863M64.5375 52.7872H56.5863M56.5863 52.7872V45.9892M301.954 85.5496L332.624 71.5713V68.5498L301.954 80.1984M301.954 85.5496V80.1984M140.281 71.7985H138.545C134.066 71.7985 130.435 75.4296 130.435 79.9088V79.9088M130.435 79.9088H99.6771V82.9303L130.435 85.2666M130.435 79.9088V85.2666M301.96 191.068H295.144V220.601H301.96V191.068ZM137.255 191.068H130.439V220.601H137.255V191.068ZM97.4984 125.186H107.722V132.001H97.4984V125.186ZM90.6831 170.621H97.4984V177.437H90.6831V170.621ZM334.901 125.186H324.678V132.001H334.901V125.186ZM341.716 170.621H334.901V177.437H341.716V170.621ZM148.609 82.0216C148.609 83.9036 147.084 85.4292 145.202 85.4292C143.32 85.4292 141.794 83.9036 141.794 82.0216C141.794 80.1395 143.32 78.6139 145.202 78.6139C147.084 78.6139 148.609 80.1395 148.609 82.0216ZM283.692 82.0216C283.692 83.9036 285.218 85.4292 287.1 85.4292C288.982 85.4292 290.508 83.9036 290.508 82.0216C290.508 80.1395 288.982 78.6139 287.1 78.6139C285.218 78.6139 283.692 80.1395 283.692 82.0216ZM209.859 172.893C209.859 176.03 212.402 178.573 215.538 178.573C218.675 178.573 221.218 176.03 221.218 172.893C221.218 169.757 218.675 167.214 215.538 167.214C212.402 167.214 209.859 169.757 209.859 172.893ZM271.73 20.2066C266.198 20.218 265.914 15.8902 266.3 14.9474C269.787 6.60995 277.057 10.8355 279.045 8.63184C280.067 7.48459 280.385 7.32556 281.589 6.41684C286.224 2.90693 289.461 10.1653 293.016 6.21239C294.743 4.28136 300.604 4.21321 302.047 8.8931C303.33 13.1186 306.67 10.8923 309.248 12.846C311.35 14.4363 313.928 16.4922 311.838 19.0139C310.157 21.0358 305.591 20.2748 302.297 20.1839C289.722 19.8091 284.27 20.1953 271.73 20.2066ZM383.738 87.701C379.546 87.701 379.717 84.9847 380.33 83.1574C381.758 78.8979 388.226 80.4655 389.895 78.8979C390.516 78.2856 391.185 77.7234 391.895 77.2168C395.563 74.6042 397.654 80.1588 400.493 77.1146C401.856 75.6493 406.252 75.6493 407.093 79.216C407.831 82.3624 411.925 81.0427 412.703 83.1574C413.786 86.1012 409.742 87.701 406.456 87.701C406.456 87.701 391.516 87.701 383.738 87.701ZM25.9326 102.468C25.9326 104.35 24.4069 105.875 22.5249 105.875C20.6429 105.875 19.1172 104.35 19.1172 102.468C19.1172 100.586 20.6429 99.06 22.5249 99.06C24.4069 99.06 25.9326 100.586 25.9326 102.468Z" stroke="#071D2B" stroke-width="1.5" stroke-miterlimit="10" stroke-linecap="round" stroke-linejoin="round"/>
</svg>
