<svg width="432" height="296" viewBox="0 0 432 296" fill="none" xmlns="http://www.w3.org/2000/svg">
<path d="M398.97 153.562C395.581 151.878 393.488 154.299 391.832 157.746C390.176 161.193 391.382 162.725 394.771 164.41C398.159 166.095 400.451 166.301 402.107 162.854C403.763 159.407 402.359 155.247 398.97 153.562Z" fill="#B7EB6E"/>
<path d="M338.852 57.5148C338.844 52.2631 318.227 51.074 318.227 51.074C318.227 51.074 301.514 51.8574 301.523 57.1091C301.531 62.3608 298.83 64.0819 318.249 65.4925C331.872 66.4821 338.86 62.7665 338.852 57.5148Z" fill="#7BB5FB"/>
<path d="M109.706 29.8861C109.617 34.3352 116.058 35.8706 120.993 35.6074C125.11 35.388 130.246 35.1585 130.336 30.7093C130.425 26.2602 125.765 23.9607 121.239 23.3923C112.736 22.3246 109.795 25.4369 109.706 29.8861Z" fill="#7BB5FB"/>
<path d="M201.894 46.7257C204.252 43.9792 208.708 46.263 207.856 49.7814L202.743 70.8883C201.995 73.9797 199.227 76.1569 196.046 76.1569H186.619C182.693 76.1569 180.576 71.5493 183.134 68.5703L201.894 46.7257Z" fill="#FFAF9D"/>
<path d="M326.652 153.959C326.652 157.765 329.737 160.85 333.543 160.85H334.442C337.3 160.85 339.862 159.085 340.881 156.414L347.206 139.823C348.926 135.312 345.595 130.477 340.768 130.477L333.543 130.477C329.737 130.477 326.652 133.562 326.652 137.368V153.959Z" fill="#C5D6E0"/>
<path d="M127.971 189.936C127.971 186.13 124.886 183.045 121.08 183.045H118.028C114.572 183.045 111.65 185.606 111.197 189.033L101.438 262.865C100.893 266.994 104.105 270.659 108.27 270.659H121.08C124.886 270.659 127.971 267.574 127.971 263.768V189.936Z" fill="#C5D6E0"/>
<path d="M28.5198 193.495C30.0452 197.004 32.6945 196.742 35.5457 195.459C38.3969 194.177 38.7676 192.023 37.2421 188.514C35.7167 185.005 33.7715 183.537 30.9203 184.82C28.069 186.102 26.9943 189.986 28.5198 193.495Z" fill="#FFDDBF"/>
<path d="M211.232 240.905C211.232 237.982 213.623 235.562 216.489 236.132C226.679 238.159 235.159 245.937 238.18 256.049C239.001 258.795 236.899 261.38 234.05 261.697C231.187 262.015 228.676 259.89 227.555 257.236C225.504 252.378 221.393 248.601 216.439 247.013C213.656 246.121 211.232 243.827 211.232 240.905Z" fill="#FFDDBF"/>
<path d="M45.8578 294.606H130.841C132.744 294.606 134.286 293.064 134.286 291.161V150.349C134.286 149.213 134.707 148.117 135.467 147.273L145.738 135.877C146.498 135.033 146.919 133.937 146.919 132.801V95.2874C146.919 94.3994 146.199 93.6796 145.311 93.6796H132.449C131.561 93.6796 130.841 94.3994 130.841 95.2874V113.578C130.841 114.847 129.812 115.875 128.544 115.875H118.208C116.939 115.875 115.911 114.847 115.911 113.578V95.2874C115.911 94.3994 115.191 93.6796 114.303 93.6796H101.441C100.553 93.6796 99.8327 94.3994 99.8327 95.2874V113.578C99.8327 114.847 98.8044 115.875 97.5359 115.875H87.1998C85.9313 115.875 84.903 114.847 84.903 113.578V95.2874C84.903 94.3994 84.1831 93.6796 83.2951 93.6796H69.2841C68.3961 93.6796 67.6763 94.3994 67.6763 95.2874V132.686C67.6763 133.891 68.1496 135.047 68.9942 135.906L80.1381 147.242C80.9837 148.102 81.4571 149.26 81.4561 150.466L81.3518 278.289C81.3508 279.559 82.3795 280.588 83.6487 280.588H190.47M380.054 294.606H355.937C354.034 294.606 352.491 293.064 352.491 291.161V150.349C352.491 149.213 352.912 148.117 353.672 147.273L363.943 135.877C364.703 135.033 365.124 133.937 365.124 132.801V95.2874C365.124 94.3994 364.404 93.6796 363.516 93.6796H350.654C349.766 93.6796 349.046 94.3994 349.046 95.2874V113.578C349.046 114.847 348.018 115.875 346.749 115.875H336.413C335.144 115.875 334.116 114.847 334.116 113.578V95.2874C334.116 94.3994 333.396 93.6796 332.508 93.6796H319.645C318.757 93.6796 318.037 94.3994 318.037 95.2874V113.578C318.037 114.847 317.009 115.875 315.74 115.875H305.404C304.136 115.875 303.108 114.847 303.108 113.578V95.2874C303.108 94.3994 302.388 93.6796 301.5 93.6796H287.489C286.601 93.6796 285.881 94.3994 285.881 95.2874V132.686C285.881 133.891 286.354 135.047 287.199 135.906L298.344 147.244C299.189 148.103 299.662 149.259 299.662 150.464L299.664 166.146C299.664 167.415 298.636 168.443 297.367 168.443H274.398C273.13 168.443 272.101 167.415 272.101 166.146V126.349C272.101 125.081 271.073 124.052 269.804 124.052H260.617C259.348 124.052 258.32 123.024 258.32 121.755V103.465C258.32 102.577 257.6 101.857 256.712 101.857H250.279M215.826 35.2766V20.0843M215.826 1.39343V3.72979M215.826 3.72979C225.47 5.51342 236.041 5.51342 245.685 3.72979L237.072 12.4911L245.685 20.0843C235.917 21.7403 225.594 21.7403 215.826 20.0843M215.826 3.72979V20.0843M103.278 138.07H111.317M111.317 138.07H114.763M111.317 138.07V143.911M101.807 155.593H117.184M95.239 143.911H105.573M105.573 143.911H111.317M105.573 143.911V149.752M111.317 143.911H117.059M99.8328 149.752H111.317M111.317 149.752H114.763M111.317 149.752V155.593M334.116 264.234H319.186M329.05 246.746H321.712M339.858 258.393H326.077M326.077 258.393H314.592M326.077 258.393V264.234M336.413 252.552H332.966M332.966 252.552H318.037M332.966 252.552V258.393M324.928 252.552V247.295M44.1329 56.8819V61.4451M44.1329 66.2274V70.9001M51.0235 63.891H46.5374M41.7283 63.891H37.2422M182.521 101.857H174.943C174.055 101.857 173.335 102.577 173.335 103.465V121.755C173.335 123.024 172.307 124.052 171.038 124.052H162.999C161.731 124.052 160.702 125.081 160.702 126.349V152.128C160.702 153.397 161.731 154.425 162.999 154.425H256.023C257.292 154.425 258.32 153.397 258.32 152.128V140.367C258.32 139.099 257.292 138.07 256.023 138.07H176.731C175.463 138.07 174.434 139.099 174.434 140.367V166.146C174.434 167.415 173.406 168.443 172.137 168.443H144.588C143.319 168.443 142.291 169.471 142.291 170.74V193.014C142.291 194.283 143.319 195.311 144.588 195.311H156.095C156.729 195.311 157.244 194.797 157.244 194.163V180.564C157.244 179.676 157.963 178.957 158.851 178.957H172.839C173.727 178.957 174.447 179.676 174.447 180.564V194.163C174.447 194.797 174.961 195.311 175.596 195.311H189.377C190.011 195.311 190.525 194.797 190.525 194.163V180.564C190.525 179.676 191.245 178.957 192.133 178.957H206.144C207.032 178.957 207.752 179.676 207.752 180.564V194.163C207.752 194.797 208.266 195.311 208.901 195.311H221.536C222.169 195.311 222.683 194.799 222.684 194.165L222.715 180.561C222.717 179.674 223.436 178.957 224.323 178.957H238.337C239.225 178.957 239.945 179.676 239.945 180.564V194.163C239.945 194.797 240.459 195.311 241.094 195.311H254.875C255.509 195.311 256.023 194.797 256.023 194.163V180.564C256.023 179.676 256.743 178.957 257.631 178.957H271.642C272.53 178.957 273.25 179.676 273.25 180.564V194.163C273.25 194.797 273.764 195.311 274.399 195.311H288.18C288.814 195.311 289.328 194.797 289.328 194.163V180.564C289.328 179.676 290.048 178.957 290.936 178.957H303.799C304.687 178.957 305.407 179.676 305.407 180.564L305.404 278.291C305.404 279.56 304.376 280.588 303.108 280.588H242.931M182.521 101.857H186.657C187.545 101.857 188.265 102.577 188.265 103.465V114.727C188.265 115.361 188.779 115.875 189.413 115.875L195.155 115.875C195.789 115.875 196.303 115.361 196.303 114.727L196.304 103.465C196.304 102.577 197.024 101.857 197.912 101.857H209.626C210.514 101.857 211.234 102.577 211.234 103.465V114.727C211.234 115.361 211.748 115.875 212.382 115.875H219.273C219.907 115.875 220.421 115.361 220.421 114.727V103.465C220.421 102.577 221.141 101.857 222.029 101.857H233.743C234.631 101.857 235.351 102.577 235.351 103.465V114.727C235.351 115.361 235.865 115.875 236.5 115.875H242.242C242.876 115.875 243.39 115.361 243.39 114.727V103.465C243.39 102.577 244.11 101.857 244.998 101.857H250.279M182.521 101.857L182.507 83.166M250.279 101.857V83.166M250.279 83.166H253.729L215.83 35.2706L177.932 83.166H182.507M250.279 83.166H182.507M216.701 230.941V230.941C202.214 230.941 190.47 242.684 190.47 257.171V280.588M216.701 230.941V230.941C231.187 230.941 242.931 242.684 242.931 257.171V280.588M216.701 230.941V280.588M216.701 280.588H242.931M216.701 280.588H190.47M218.123 93.6796C218.123 94.9699 217.094 96.0159 215.826 96.0159C214.557 96.0159 213.529 94.9699 213.529 93.6796C213.529 92.3892 214.557 91.3432 215.826 91.3432C217.094 91.3432 218.123 92.3892 218.123 93.6796ZM218.123 146.248C218.123 147.538 217.094 148.584 215.826 148.584C214.557 148.584 213.529 147.538 213.529 146.248C213.529 144.957 214.557 143.911 215.826 143.911C217.094 143.911 218.123 144.957 218.123 146.248ZM206.638 146.248C206.638 147.538 205.61 148.584 204.341 148.584C203.073 148.584 202.044 147.538 202.044 146.248C202.044 144.957 203.073 143.911 204.341 143.911C205.61 143.911 206.638 144.957 206.638 146.248ZM195.154 146.248C195.154 147.538 194.125 148.584 192.857 148.584C191.588 148.584 190.56 147.538 190.56 146.248C190.56 144.957 191.588 143.911 192.857 143.911C194.125 143.911 195.154 144.957 195.154 146.248ZM241.092 146.248C241.092 147.538 240.063 148.584 238.795 148.584C237.526 148.584 236.498 147.538 236.498 146.248C236.498 144.957 237.526 143.911 238.795 143.911C240.063 143.911 241.092 144.957 241.092 146.248ZM229.607 146.248C229.607 147.538 228.579 148.584 227.31 148.584C226.042 148.584 225.013 147.538 225.013 146.248C225.013 144.957 226.042 143.911 227.31 143.911C228.579 143.911 229.607 144.957 229.607 146.248ZM168.739 242.038V229.723C168.739 228.137 167.454 226.852 165.868 226.852V226.852C164.283 226.852 162.997 228.137 162.997 229.723L162.997 242.038H168.739ZM267.506 242.038V229.723C267.506 228.137 266.22 226.852 264.635 226.852V226.852C263.049 226.852 261.764 228.137 261.764 229.723L261.764 242.038H267.506ZM320.334 217.507H331.909V202.267C331.909 199.07 329.318 196.479 326.122 196.479V196.479C322.925 196.479 320.334 199.07 320.334 202.267V217.507ZM102.13 217.507H113.704V202.267C113.704 199.07 111.113 196.479 107.917 196.479V196.479C104.721 196.479 102.13 199.07 102.13 202.267V217.507ZM302.41 59.1483C296.817 59.16 296.53 54.7093 296.92 53.7397C300.446 45.1652 307.796 49.5109 309.806 47.2446C310.839 46.0647 311.161 45.9012 312.378 44.9666C317.064 41.357 320.337 48.8216 323.932 44.7564C325.677 42.7705 331.603 42.7004 333.062 47.5133C334.36 51.8589 337.736 49.5693 340.343 51.5785C342.468 53.214 345.074 55.3284 342.961 57.9218C341.262 60.0011 336.645 59.2184 333.314 59.125C320.601 58.7395 315.089 59.1367 302.41 59.1483ZM404.173 154.425C404.173 156.36 402.63 157.929 400.728 157.929C398.825 157.929 397.282 156.36 397.282 154.425C397.282 152.489 398.825 150.92 400.728 150.92C402.63 150.92 404.173 152.489 404.173 154.425ZM106.723 29.4297C102.486 29.4297 102.659 26.6362 103.278 24.757C104.722 20.3764 111.261 21.9885 112.949 20.3764C113.577 19.7467 114.253 19.1686 114.97 18.6475C118.68 15.9607 120.793 21.6731 123.664 18.5424C125.042 17.0354 129.487 17.0354 130.336 20.7035C131.083 23.9394 135.222 22.5821 136.009 24.757C137.104 27.7844 133.015 29.4297 129.692 29.4297C129.692 29.4297 114.588 29.4297 106.723 29.4297Z" stroke="#071D2B" stroke-width="1.5" stroke-linecap="round" stroke-linejoin="round"/>
</svg>
